<?xml version="1.0" encoding="iso-8859-1"?>
<!-- Generator: Adobe Illustrator 23.0.3, SVG Export Plug-In . SVG Version: 6.00 Build 0)  -->
<svg version="1.1" id="Layer_1" xmlns="http://www.w3.org/2000/svg" xmlns:xlink="http://www.w3.org/1999/xlink" x="0px" y="0px"
	 viewBox="0 0 48 48" style="enable-background:new 0 0 48 48;" xml:space="preserve">
<g>
	
		<line style="fill:none;stroke:#000000;stroke-width:3;stroke-linecap:round;stroke-linejoin:round;stroke-miterlimit:10;" x1="17.19" y1="24.293" x2="5.796" y2="15.706"/>
	
		<polyline style="fill:none;stroke:#000000;stroke-width:3;stroke-linecap:round;stroke-linejoin:round;stroke-miterlimit:10;" points="
		42.054,15.819 24,29.425 21.54,27.571 	"/>
	<path style="fill:none;stroke:#000000;stroke-width:3;stroke-linecap:round;stroke-linejoin:round;stroke-miterlimit:10;" d="
		M42.417,24.574v11.123c0,1.565-1.268,2.833-2.833,2.833H34.5V11.537"/>
	<path style="fill:none;stroke:#000000;stroke-width:3;stroke-linecap:round;stroke-linejoin:round;stroke-miterlimit:10;" d="
		M5.583,30.213V13.417c0-2.347,1.903-4.25,4.25-4.25l0,0c0.961,0,1.853,0.313,2.564,0.85L24,18.757l11.602-8.741
		c0.71-0.53,1.611-0.85,2.564-0.85l0,0c2.347,0,4.25,1.903,4.25,4.25v6.009"/>
	<path style="fill:none;stroke:#000000;stroke-width:3;stroke-linecap:round;stroke-linejoin:round;stroke-miterlimit:10;" d="
		M13.5,11.69v26.841H8.417c-1.565,0-2.833-1.268-2.833-2.833"/>
</g>
</svg>